<?xml version="1.0" encoding="iso-8859-1"?>
<!-- Generator: Adobe Illustrator 19.0.0, SVG Export Plug-In . SVG Version: 6.00 Build 0)  -->
<svg version="1.1" id="Layer_1" xmlns="http://www.w3.org/2000/svg" xmlns:xlink="http://www.w3.org/1999/xlink" x="0px" y="0px"
	 viewBox="0 0 512.043 512.043" style="enable-background:new 0 0 512.043 512.043;" xml:space="preserve">
<g>
	<g>
		<g>
			<path d="M442.222,0H176.473c-32.651,0-59.115,26.474-59.115,59.136v47.531H69.821c-32.667,0-59.136,26.469-59.136,59.136v180.395
				c0,32.667,26.469,59.136,59.136,59.136h4.864v85.333c0,19.006,22.979,28.524,36.418,15.085l100.418-100.418h124.027
				c32.667,0,59.136-26.469,59.136-59.136v-47.531h47.537c32.667,0,59.136-26.469,59.136-59.136V59.136
				C501.358,26.469,474.889,0,442.222,0z M352.018,346.197c0,9.103-7.366,16.469-16.469,16.469H202.685
				c-5.658,0-11.084,2.248-15.085,6.248l-70.248,70.248V384c0-11.782-9.551-21.333-21.333-21.333H69.821
				c-9.103,0-16.469-7.366-16.469-16.469V165.803c0-9.103,7.366-16.469,16.469-16.469h68.87h196.858
				c9.103,0,16.469,7.366,16.469,16.469V346.197z M458.691,239.531c0,9.103-7.366,16.469-16.469,16.469h-47.531v-90.197
				c0-32.667-26.469-59.136-59.136-59.136h-0.006H160.025V59.136c0-9.102,7.365-16.469,16.448-16.469h265.749
				c9.103,0,16.469,7.366,16.469,16.469V239.531z"/>
			<path d="M117.352,234.667h106.667c11.782,0,21.333-9.551,21.333-21.333c0-11.782-9.551-21.333-21.333-21.333H117.352
				c-11.782,0-21.333,9.551-21.333,21.333C96.018,225.115,105.569,234.667,117.352,234.667z"/>
			<path d="M288.018,277.333H117.352c-11.782,0-21.333,9.551-21.333,21.333c0,11.782,9.551,21.333,21.333,21.333h170.667
				c11.782,0,21.333-9.551,21.333-21.333C309.352,286.885,299.8,277.333,288.018,277.333z"/>
		</g>
	</g>
</g>
<g>
</g>
<g>
</g>
<g>
</g>
<g>
</g>
<g>
</g>
<g>
</g>
<g>
</g>
<g>
</g>
<g>
</g>
<g>
</g>
<g>
</g>
<g>
</g>
<g>
</g>
<g>
</g>
<g>
</g>
</svg>
